<svg width="744" height="852" viewBox="0 0 744 852" fill="none" xmlns="http://www.w3.org/2000/svg">
<path d="M742.66 480.51C742.66 521.39 709.83 554.51 669.33 554.51C628.83 554.51 596 521.39 596 480.51C596 439.63 628.83 406.51 669.32 406.51C709.81 406.51 742.66 439.62 742.66 480.51ZM444 255.72C444 338.24 378.34 405.13 297.35 405.13C216.36 405.13 150.68 338.24 150.68 255.72C150.68 173.2 216.34 106.32 297.33 106.32C378.32 106.32 444 173.21 444 255.72ZM297.33 479.16C297.33 520.04 264.5 553.16 224.01 553.16C183.52 553.16 150.68 520.01 150.68 479.16C150.68 438.31 183.51 405.16 224.01 405.16C264.51 405.16 297.33 438.3 297.33 479.16ZM449.33 773.93C449.33 814.82 416.5 847.93 376.01 847.93C335.52 847.93 302.68 814.79 302.68 773.93C302.68 733.07 335.51 699.93 376.01 699.93C416.51 699.93 449.36 733.05 449.36 773.93H449.33Z" fill="#313443"/>
<path fill-rule="evenodd" clip-rule="evenodd" d="M597.35 701.25V852H744C744 768.74 678.34 701.25 597.35 701.25ZM302.71 549.15V699.9H449.36C449.36 616.64 383.7 549.15 302.71 549.15Z" fill="#313443"/>
<path d="M444 405.13C443.989 365.161 459.856 326.824 488.11 298.554C516.364 270.283 554.691 254.393 594.66 254.38V553.19C511.44 553.19 444 486.9 444 405.13ZM596 625.87C596 666.76 561.12 699.87 518.09 699.87H449.36V621.52C449.36 583.04 482.19 551.84 522.68 551.84C563.17 551.84 596 583 596 621.52V625.87ZM594.65 332.45C594.65 291.56 629.53 258.45 672.56 258.45H741.3V336.8C741.3 375.28 708.47 406.47 667.98 406.47C627.49 406.47 594.65 375.28 594.65 336.8V332.44V332.45Z" fill="#313443"/>
<path d="M302.71 479.16C302.71 520.04 337.59 553.16 380.62 553.16H449.36V474.8C449.36 436.32 416.53 405.13 376.04 405.13C335.55 405.13 302.71 436.32 302.71 474.8V479.16V479.16Z" fill="#313443"/>
<path fill-rule="evenodd" clip-rule="evenodd" d="M744 160.17V0H582.55C582.55 88.46 654.83 160.17 744 160.17ZM302.71 701.25H154.71V852C236.45 852 302.71 784.51 302.71 701.25Z" fill="#313443"/>
<path d="M0 406.47C83.22 406.47 150.68 472.76 150.68 554.53C150.685 574.323 146.792 593.923 139.222 612.211C131.653 630.499 120.555 647.117 106.563 661.117C92.5715 675.116 75.9592 686.222 57.675 693.802C39.3908 701.381 19.7928 705.284 0 705.29L0 406.47Z" fill="#313443"/>
</svg>
