<svg width="802" height="263" viewBox="0 0 802 263" fill="none" xmlns="http://www.w3.org/2000/svg">
<path opacity="0.4" d="M120.164 11.6444L0.686646 130.943L120.164 250.241L239.642 130.943L120.164 11.6444Z" fill="#5D6173"/>
<path opacity="0.4" d="M307.564 11.7744L188.087 131.073L307.564 250.371L427.042 131.073L307.564 11.7744Z" fill="#5D6173"/>
<path opacity="0.4" d="M681.845 11.6481L562.368 130.946L681.845 250.245L801.323 130.946L681.845 11.6481Z" fill="#5D6173"/>
<path opacity="0.6" d="M494.619 12.2874L375.141 131.586L494.619 250.884L614.096 131.586L494.619 12.2874Z" fill="#242734"/>
<path opacity="0.6" fill-rule="evenodd" clip-rule="evenodd" d="M379.621 136.059L375.141 131.586L379.621 127.112L382.452 129.938L380.802 131.586L382.452 133.233L379.621 136.059ZM394.556 112.2L385.595 121.147L388.426 123.973L397.387 115.026L394.556 112.2ZM400.53 106.235L403.361 109.061L412.321 100.114L409.491 97.2875L400.53 106.235ZM415.465 91.3226L418.295 94.1489L427.256 85.2015L424.426 82.3752L415.465 91.3226ZM430.399 76.4103L433.23 79.2366L442.191 70.2892L439.36 67.4629L430.399 76.4103ZM445.334 61.498L448.165 64.3243L457.125 55.3769L454.295 52.5506L445.334 61.498ZM460.269 46.5857L463.099 49.412L472.06 40.4646L469.23 37.6383L460.269 46.5857ZM475.203 31.6734L478.034 34.4997L486.995 25.5523L484.164 22.726L475.203 31.6734ZM490.138 16.7611L492.969 19.5874L494.619 17.94L496.268 19.5874L499.099 16.7611L494.619 12.2874L490.138 16.7611ZM505.073 22.726L502.242 25.5523L511.203 34.4997L514.034 31.6734L505.073 22.726ZM520.008 37.6383L517.177 40.4646L526.138 49.412L528.968 46.5857L520.008 37.6383ZM534.942 52.5506L532.112 55.3769L541.072 64.3243L543.903 61.498L534.942 52.5506ZM549.877 67.4629L547.046 70.2892L556.007 79.2366L558.838 76.4103L549.877 67.4629ZM564.812 82.3752L561.981 85.2015L570.942 94.1489L573.772 91.3226L564.812 82.3752ZM579.746 97.2875L576.916 100.114L585.877 109.061L588.707 106.235L579.746 97.2875ZM594.681 112.2L591.85 115.026L600.811 123.973L603.642 121.147L594.681 112.2ZM609.616 127.112L606.785 129.938L608.435 131.586L606.785 133.233L609.616 136.059L614.096 131.586L609.616 127.112ZM603.642 142.024L600.811 139.198L591.85 148.145L594.681 150.972L603.642 142.024ZM588.707 156.937L585.877 154.11L576.916 163.058L579.746 165.884L588.707 156.937ZM573.772 171.849L570.942 169.023L561.981 177.97L564.812 180.796L573.772 171.849ZM558.838 186.761L556.007 183.935L547.046 192.882L549.877 195.709L558.838 186.761ZM543.903 201.674L541.072 198.847L532.112 207.795L534.942 210.621L543.903 201.674ZM528.968 216.586L526.138 213.76L517.177 222.707L520.008 225.533L528.968 216.586ZM514.034 231.498L511.203 228.672L502.242 237.619L505.073 240.445L514.034 231.498ZM499.099 246.41L496.268 243.584L494.619 245.231L492.969 243.584L490.138 246.41L494.619 250.884L499.099 246.41ZM484.164 240.445L486.995 237.619L478.034 228.672L475.203 231.498L484.164 240.445ZM469.23 225.533L472.06 222.707L463.099 213.76L460.269 216.586L469.23 225.533ZM454.295 210.621L457.125 207.795L448.165 198.847L445.334 201.674L454.295 210.621ZM439.36 195.709L442.191 192.882L433.23 183.935L430.399 186.761L439.36 195.709ZM424.426 180.796L427.256 177.97L418.295 169.023L415.465 171.849L424.426 180.796ZM409.491 165.884L412.321 163.058L403.361 154.11L400.53 156.937L409.491 165.884ZM394.556 150.972L397.387 148.145L388.426 139.198L385.595 142.024L394.556 150.972Z" fill="#D2DAFF"/>
<path d="M610.681 128.182L614.091 131.587L610.681 134.992" stroke="#BFC4DA" stroke-width="4" stroke-miterlimit="10"/>
<path d="M498.024 247.48L494.614 250.885L491.204 247.48" stroke="#BFC4DA" stroke-width="4" stroke-miterlimit="10"/>
<path d="M378.547 134.992L375.137 131.587L378.547 128.182" stroke="#BFC4DA" stroke-width="4" stroke-miterlimit="10"/>
<path d="M491.204 15.6935L494.614 12.2886L498.024 15.6935" stroke="#BFC4DA" stroke-width="4" stroke-miterlimit="10"/>
<path d="M375.359 122.487L366.132 131.699L375.359 140.912L384.585 131.699L375.359 122.487Z" fill="#242734" stroke="#BFC4DA" stroke-width="4" stroke-miterlimit="10"/>
<path d="M495.029 3.00001L485.803 12.2125L495.029 21.4249L504.255 12.2125L495.029 3.00001Z" fill="#242734" stroke="#BFC4DA" stroke-width="4" stroke-miterlimit="10"/>
<path d="M494.385 241.335L485.159 250.548L494.385 259.76L503.612 250.548L494.385 241.335Z" fill="#242734" stroke="#BFC4DA" stroke-width="4" stroke-miterlimit="10"/>
<path d="M614.056 121.848L604.829 131.061L614.056 140.273L623.282 131.061L614.056 121.848Z" fill="#242734" stroke="#BFC4DA" stroke-width="4" stroke-miterlimit="10"/>
<path d="M722.695 104.733V163.836L692.758 146.652C695.236 142.899 696.672 138.558 696.92 134.071C697.169 129.584 696.221 125.111 694.174 121.109L722.695 104.733Z" fill="#5F85FF"/>
<path d="M96.3563 152.915C110.392 152.915 121.77 141.554 121.77 127.539C121.77 113.525 110.392 102.164 96.3563 102.164C82.3206 102.164 70.9425 113.525 70.9425 127.539C70.9425 141.554 82.3206 152.915 96.3563 152.915Z" fill="#5F85FF"/>
<path d="M115.015 181.824C129.05 181.824 140.428 170.463 140.428 156.448C140.428 142.434 129.05 131.073 115.015 131.073C100.979 131.073 89.6008 142.434 89.6008 156.448C89.6008 170.463 100.979 181.824 115.015 181.824Z" fill="#E566FF"/>
<path d="M131.743 150.988C145.778 150.988 157.157 139.627 157.157 125.612C157.157 111.598 145.778 100.236 131.743 100.236C117.707 100.236 106.329 111.598 106.329 125.612C106.329 139.627 117.707 150.988 131.743 150.988Z" fill="#FF9567"/>
<path d="M297.628 143.607H283.64L281.395 150.217H271.841L285.403 112.789H295.974L309.537 150.217H299.886L297.628 143.607ZM290.634 122.863L286.04 136.566H295.279L290.634 122.863Z" fill="#B6BDD3"/>
<path d="M324.972 120.042C329.405 120.042 332.557 122.066 334.159 124.681V120.466H343.289V150.217H334.159V146.003C332.499 148.617 329.353 150.641 324.92 150.641C317.656 150.641 311.834 144.673 311.834 135.287C311.834 125.901 317.656 120.042 324.972 120.042ZM327.655 127.983C324.238 127.983 321.144 130.552 321.144 135.287C321.144 140.022 324.225 142.701 327.655 142.701C331.084 142.701 334.172 140.086 334.172 135.345C334.172 130.604 331.116 127.983 327.655 127.983Z" fill="#B6BDD3"/>
<path d="M671.224 134.285L692.758 146.652C689.682 151.303 685.157 154.813 679.882 156.639C674.608 158.465 668.878 158.506 663.578 156.755C658.278 155.004 653.703 151.559 650.56 146.953C647.417 142.346 645.881 136.834 646.189 131.268C646.498 125.703 648.633 120.393 652.266 116.161C655.899 111.928 660.827 109.008 666.288 107.852C671.749 106.696 677.439 107.368 682.48 109.764C687.52 112.16 691.63 116.147 694.174 121.109L671.224 134.285Z" fill="#B6BDD3"/>
<path d="M531.287 124.006H457.941C453.499 124.006 449.898 127.601 449.898 132.036C449.898 136.471 453.499 140.067 457.941 140.067H531.287C535.729 140.067 539.329 136.471 539.329 132.036C539.329 127.601 535.729 124.006 531.287 124.006Z" stroke="#BFC4DA" stroke-width="4" stroke-miterlimit="10"/>
<path d="M522.486 176.37L518.194 186.649C518.102 186.868 517.945 187.053 517.745 187.18C517.544 187.307 517.31 187.37 517.072 187.361C516.835 187.351 516.606 187.269 516.417 187.125C516.228 186.982 516.087 186.784 516.013 186.559L508.292 163.027C508.226 162.821 508.217 162.602 508.268 162.392C508.319 162.182 508.427 161.99 508.58 161.838C508.733 161.686 508.926 161.579 509.136 161.529C509.347 161.479 509.567 161.488 509.772 161.556L534.009 169.618C534.237 169.697 534.436 169.846 534.576 170.043C534.716 170.239 534.792 170.475 534.792 170.717C534.792 170.958 534.716 171.194 534.576 171.391C534.436 171.588 534.237 171.736 534.009 171.815L523.129 175.753C522.986 175.807 522.855 175.89 522.744 175.996C522.633 176.102 522.545 176.229 522.486 176.37V176.37Z" fill="white"/>
</svg>
