<svg width="484" height="486" viewBox="0 0 484 486" fill="none" xmlns="http://www.w3.org/2000/svg">
<path d="M328.278 174.484C324.731 174.484 321.234 174.603 317.785 174.841C314.542 211.984 298.269 246.777 271.85 273.054C245.43 299.331 210.571 315.394 173.452 318.397C173.179 322.2 173.032 326.044 173.032 329.952C173.032 415.68 242.702 485.42 328.32 485.42C413.938 485.42 483.607 415.68 483.607 329.952C483.607 244.224 413.906 174.484 328.278 174.484ZM328.278 384.576C313.812 384.559 299.944 378.799 289.716 368.558C279.488 358.318 273.734 344.434 273.717 329.952C273.734 315.47 279.488 301.586 289.716 291.346C299.944 281.105 313.812 275.345 328.278 275.328C342.743 275.345 356.611 281.105 366.839 291.346C377.068 301.586 382.822 315.47 382.838 329.952C382.822 344.434 377.068 358.318 366.839 368.558C356.611 378.799 342.743 384.559 328.278 384.576ZM312.424 175.262C277.089 178.948 244.08 194.631 218.883 219.704C193.686 244.777 177.821 277.729 173.924 313.082C209.476 309.983 242.814 294.49 268.125 269.304C293.435 244.117 309.113 210.835 312.424 175.262Z" fill="#656979"/>
<path d="M165.614 318.819L165.451 313.569L167.549 313.529L167.765 318.778L165.614 318.819ZM157.083 318.845L154.983 318.78L155.166 313.524C155.858 313.51 156.541 313.571 157.266 313.578L157.083 318.845ZM146.43 318.229L144.327 318.027L144.877 312.763C145.561 312.845 146.244 312.906 146.928 312.966L146.43 318.229ZM135.847 316.896L133.741 316.548L134.692 311.371C135.366 311.495 136.04 311.608 136.724 311.711L135.847 316.896ZM125.388 314.9L123.28 314.404L124.526 309.295L126.529 309.782L125.388 314.9ZM115.082 312.133L113.034 311.5L114.629 306.5L116.603 307.114L115.082 312.133ZM104.963 308.67L102.965 307.899L104.897 303.019L106.832 303.759L104.963 308.67ZM95.1138 304.529L93.1761 303.62L95.4365 298.881L97.3107 299.759L95.1138 304.529ZM85.5773 299.72L83.711 298.705L86.2893 294.127L88.0927 295.144L85.5773 299.72ZM76.3855 294.274C75.7906 293.897 75.1851 293.509 74.5898 293.111L77.4762 288.727C78.0501 289.105 78.6239 289.483 79.2081 289.85L76.3855 294.274ZM67.5916 288.232C67.0167 287.802 66.442 287.382 65.8774 286.941L69.051 282.762C69.5943 283.183 70.1163 283.593 70.7013 284.002L67.5916 288.232ZM59.2578 281.551L57.6467 280.164L61.0868 276.2L62.6551 277.547L59.2578 281.551ZM51.3652 274.347C50.8521 273.853 50.3486 273.316 49.8466 272.853L53.5432 269.137L55.0189 270.579L51.3652 274.347ZM43.9672 266.661C43.485 266.134 43.0241 265.628 42.5517 265.07L46.4944 261.601L47.8672 263.151L43.9672 266.661ZM37.1057 258.491C36.6648 257.932 36.2344 257.373 35.8038 256.804L39.9409 253.625L41.1997 255.251L37.1057 258.491ZM30.813 249.88C30.4137 249.3 30.0141 248.708 29.625 248.117L33.9984 245.218L35.1434 246.93L30.813 249.88ZM25.1108 240.869L24.0264 239.03L28.5944 236.432C28.931 237.025 29.2678 237.628 29.6149 238.22L25.1108 240.869ZM20.0422 231.51C19.7258 230.875 19.4198 230.24 19.1137 229.595L23.8348 227.319C24.1298 227.934 24.4353 228.548 24.7409 229.162L20.0422 231.51ZM15.6597 221.812C15.3848 221.155 15.1099 220.499 14.8456 219.842L19.7197 217.889C19.9732 218.525 20.2372 219.161 20.5012 219.797L15.6597 221.812ZM11.8908 211.819L11.2225 209.793L16.2186 208.185C16.4304 208.832 16.6423 209.49 16.8645 210.137L11.8908 211.819ZM8.82048 201.591C8.63963 200.912 8.46904 200.222 8.29788 199.5L13.3845 198.237L13.8948 200.234L8.82048 201.591ZM6.46032 191.182C6.32109 190.485 6.19237 189.787 6.07413 189.088L11.2303 188.171C11.3587 188.851 11.4767 189.532 11.6049 190.202L6.46032 191.182ZM4.71632 180.614C4.62948 179.912 4.55297 179.199 4.47702 178.518L9.71326 177.945C9.78941 178.637 9.86533 179.319 9.95257 180.042L4.71632 180.614ZM318.121 169.17L312.869 168.923C312.856 168.23 312.937 167.546 312.955 166.82L318.206 167.014C318.189 167.792 318.161 168.507 318.121 169.212L318.121 169.17ZM3.77992 170.021L3.67696 167.921L8.91981 167.695C8.93301 168.389 8.94602 169.071 9.02277 169.795L3.77992 170.021ZM318.286 158.545L313.04 158.645L313.036 158.424C313.024 157.804 313.012 157.185 313.001 156.576L318.245 156.413C318.257 157.043 318.269 157.683 318.281 158.324L318.286 158.545ZM8.79361 159.419L3.54536 159.361C3.53175 158.647 3.51815 157.933 3.57878 157.259L8.82863 157.401C8.81986 158.042 8.80138 158.725 8.79361 159.419ZM312.519 148.379C312.506 147.696 312.399 147.005 312.333 146.281L317.57 145.772C317.646 146.474 317.702 147.177 317.767 147.869L312.519 148.379ZM9.24873 149.156L3.99367 148.741L4.17394 146.636L9.4304 147.125C9.37906 147.735 9.31863 148.419 9.26869 149.103L9.24873 149.156ZM311.275 138.149C311.168 137.468 311.06 136.787 310.942 136.106L316.173 135.25C316.291 135.952 316.399 136.654 316.507 137.345L311.275 138.149ZM10.397 138.922L5.2088 138.159C5.31079 137.453 5.42328 136.747 5.53596 136.051L10.7151 136.888C10.6321 137.488 10.5297 138.173 10.4271 138.847L10.397 138.922ZM309.371 127.973C309.221 127.292 309.062 126.623 308.902 125.954L314.011 124.743L314.491 126.835L309.371 127.973ZM12.2696 128.695L7.14798 127.573C7.29234 126.888 7.45745 126.191 7.61149 125.463L12.7238 126.648C12.5798 127.354 12.4248 128.03 12.2696 128.695ZM306.797 117.946C306.61 117.291 306.409 116.633 306.193 115.972L311.201 114.405C311.413 115.084 311.625 115.774 311.828 116.495L306.797 117.946ZM14.8076 118.697L9.77381 117.227C9.97062 116.54 10.1779 115.854 10.3854 115.177L15.3994 116.71L14.8076 118.697ZM303.536 108.153C303.293 107.506 303.05 106.87 302.796 106.223L307.692 104.323C307.946 104.99 308.2 105.658 308.444 106.326L303.536 108.153ZM18.0424 108.917L13.1281 107.108C13.3674 106.446 13.617 105.779 13.8771 105.108L18.7716 106.98L18.0424 108.917ZM299.63 98.6769C299.345 98.0519 299.061 97.427 298.765 96.8127L303.52 94.6208L304.407 96.5581L299.63 98.6769ZM21.9306 99.2816L17.1465 97.1453C17.4384 96.4884 17.7304 95.8419 18.0329 95.1952L22.7869 97.4056L21.9306 99.2816ZM295.066 89.3921C294.751 88.7887 294.414 88.1857 294.088 87.5826L298.678 85.0366C299.015 85.6606 299.362 86.2843 299.689 86.9085L295.066 89.3921ZM26.4239 90.0028L21.7909 87.5379C22.1251 86.9012 22.4595 86.275 22.8043 85.6485L27.407 88.1769C27.1142 88.7814 26.7899 89.3864 26.4658 90.002L26.4239 90.0028ZM289.86 80.4872C289.492 79.9058 289.124 79.3245 288.777 78.7427L293.183 75.8956C293.572 76.487 293.951 77.0892 294.329 77.6913L289.86 80.4872ZM31.5632 81.0374L27.1554 78.2741L28.2963 76.4662L32.716 79.3029C32.328 79.8671 31.9718 80.4518 31.6051 81.0366L31.5632 81.0374ZM284.093 71.9397C283.683 71.3802 283.285 70.8309 282.865 70.2821L287.076 67.1339L288.337 68.854L284.093 71.9397ZM37.3077 72.4387L33.0514 69.3679C33.4601 68.7857 33.8794 68.2104 34.3093 67.6418L38.5666 70.7652L37.3077 72.4387ZM277.756 63.7918C277.316 63.2644 276.876 62.7579 276.425 62.2202L280.411 58.7927C280.872 59.3407 281.334 59.8783 281.785 60.4265L277.756 63.7918ZM43.6591 64.3013L39.6075 60.9533C40.0691 60.3982 40.5211 59.8853 40.9826 59.3197L44.9827 62.7211C44.5308 63.234 44.0893 63.7467 43.6591 64.3013ZM270.936 56.126L269.501 54.6404L273.241 50.9654C273.744 51.4706 274.236 51.9971 274.729 52.492L270.936 56.126ZM50.4906 56.5749L46.6858 52.9596C47.169 52.4356 47.6624 51.8904 48.1571 51.4187L51.9208 55.0768C51.4365 55.5483 50.9634 56.0511 50.4902 56.5539L50.4906 56.5749ZM263.568 48.9118L262.03 47.5332L265.524 43.6108L267.104 45.041L263.568 48.9118ZM57.8873 49.3211L54.3296 45.4595L55.9079 44.0215L59.4036 47.9369L57.8873 49.3211ZM255.779 42.1994L254.065 40.9083L257.281 36.76C257.846 37.1905 258.4 37.6317 258.954 38.0729L255.779 42.1994ZM65.6927 42.5848L62.4026 38.4449C62.9606 37.993 63.5084 37.5518 64.0669 37.1209L67.2941 41.262L65.6927 42.5848ZM247.497 36.0323L245.785 34.8672L248.714 30.5142L250.479 31.7204L247.497 36.0323ZM73.876 36.4087L70.8766 32.1056L72.6271 30.8956L75.5746 35.2311L73.876 36.4087ZM238.765 30.4516L236.982 29.435L239.614 24.888C240.229 25.244 240.844 25.6 241.45 25.9667L238.765 30.4516ZM82.5107 30.7914L79.812 26.2934C80.4136 25.9248 81.026 25.5664 81.6383 25.208L84.2852 29.7384L82.5107 30.7914ZM229.728 25.4651L227.874 24.5443L230.188 19.8249L232.106 20.839L229.728 25.4651ZM91.5033 25.7766L89.1056 21.1048L91.0077 20.144L93.3431 24.8484L91.5033 25.7766ZM220.368 21.1047L218.454 20.3006L220.46 15.4399L222.438 16.2638L220.368 21.1047ZM100.812 21.3861L98.7367 16.5611L100.704 15.7251L102.707 20.5831L100.812 21.3861ZM210.727 17.3799L208.762 16.7134L210.42 11.7332L212.437 12.4198L210.727 17.3799ZM110.416 17.6309L108.705 12.6309L110.717 11.9412L112.396 16.9103L110.416 17.6309ZM200.867 14.3422L198.874 13.8129L200.183 8.72381L202.24 9.27298L200.867 14.3422ZM120.284 14.5116L118.876 9.44282L120.964 8.88816L122.289 13.9691C121.579 14.1508 120.91 14.3211 120.284 14.5116ZM190.862 11.9378L188.84 11.556L189.791 6.38975C190.496 6.5129 191.192 6.65723 191.897 6.79088L190.862 11.9378ZM130.303 12.1039L129.25 6.95472L131.34 6.53667L132.31 11.6979L130.303 12.1039ZM180.693 10.2718L178.642 10.0168L179.245 4.80454L181.349 5.05861L180.693 10.2718ZM140.47 10.3762L139.762 5.13648L141.855 4.86548L142.48 10.1068L140.47 10.3762ZM170.432 9.29061L168.331 9.18353L168.577 3.92559C169.29 3.912 169.995 3.99316 170.678 4.04319L170.432 9.29061ZM150.724 9.34036L150.373 4.09382L152.469 3.96981L152.737 9.21795L150.724 9.34036ZM160.163 9.00292L158.065 9.04289L157.965 3.79156L160.063 3.75159L160.163 9.00292Z" fill="#BCBCBC"/>
<path d="M160.924 215.421C190.767 215.421 214.96 191.2 214.96 161.322C214.96 131.444 190.767 107.223 160.924 107.223C131.081 107.223 106.888 131.444 106.888 161.322C106.888 191.2 131.081 215.421 160.924 215.421Z" stroke="#BCBCBC" stroke-width="5" stroke-dasharray="2 8"/>
</svg>
